<?xml version="1.0" encoding="iso-8859-1"?>
<!-- Generator: Adobe Illustrator 18.0.0, SVG Export Plug-In . SVG Version: 6.00 Build 0)  -->
<!DOCTYPE svg PUBLIC "-//W3C//DTD SVG 1.1//EN" "http://www.w3.org/Graphics/SVG/1.1/DTD/svg11.dtd">
<svg version="1.1" id="Capa_1" xmlns="http://www.w3.org/2000/svg" xmlns:xlink="http://www.w3.org/1999/xlink" x="0px" y="0px"
	 viewBox="0 0 297 297" style="enable-background:new 0 0 297 297;" xml:space="preserve">
<g>
	<path d="M279.975,104.268h-9.718v71.567h9.718c5.365,0,9.716-4.352,9.716-9.717v-52.134
		C289.69,108.618,285.34,104.268,279.975,104.268z"/>
	<path d="M254.972,9.719c0-3.932-2.369-7.475-6.002-8.978c-3.629-1.508-7.811-0.672-10.59,2.11
		c-43.091,43.132-80.336,63.69-103.993,73.343c-9.455,3.858-17.532,7.341-23.973,8.917V195.81
		c23.734,5.679,70.355,23.778,127.968,81.441c1.858,1.862,4.347,2.85,6.876,2.85c0.053,0,0.106,0,0.159-0.002
		c5.301-0.074,9.575-4.396,9.575-9.716c0-0.207-0.006-0.414-0.019-0.619L254.972,9.719z"/>
	<path d="M94.866,85.111H17.555c-5.658,0-10.245,5.103-10.245,10.763v99.936h87.557V85.111z"/>
	<path d="M95.326,209.568h-74.87l33.72,81.434c1.504,3.631,5.048,5.999,8.977,5.999h53.837c0.008-0.001,0.012-0.001,0.019,0
		c5.367,0,9.718-4.351,9.718-9.717c0-1.54-0.357-2.994-0.995-4.288L95.326,209.568z"/>
</g>
<g>
</g>
<g>
</g>
<g>
</g>
<g>
</g>
<g>
</g>
<g>
</g>
<g>
</g>
<g>
</g>
<g>
</g>
<g>
</g>
<g>
</g>
<g>
</g>
<g>
</g>
<g>
</g>
<g>
</g>
</svg>
